HIERARCHY
ROOT Hips
{
	OFFSET	0.00	0.00	0.00
	CHANNELS 6 Xposition Yposition Zposition Zrotation Xrotation Yrotation
	JOINT LeftUpLeg
	{
		OFFSET	 0.126116	-0.014019	-0.065224
		CHANNELS 3 Zrotation Xrotation Yrotation
		JOINT LeftLeg
		{
			OFFSET	 0.000000	 0.000000	 0.569914
			CHANNELS 3 Zrotation Xrotation Yrotation
			JOINT LeftFoot
			{
				OFFSET	 0.000000	 0.000000	 0.544423
				CHANNELS 3 Zrotation Xrotation Yrotation
				JOINT LeftToeBase
				{
					OFFSET	 0.000000	 0.000000	 0.207117
					CHANNELS 3 Zrotation Xrotation Yrotation
					End Site
					{
						OFFSET	 0.000000	 0.000000	 0.207117
					}
				}
			}
		}
	}
	JOINT RightUpLeg
	{
		OFFSET	-0.124023	-0.008373	-0.065224
		CHANNELS 3 Zrotation Xrotation Yrotation
		JOINT RightLeg
		{
			OFFSET	 0.000000	 0.000000	 0.570047
			CHANNELS 3 Zrotation Xrotation Yrotation
			JOINT RightFoot
			{
				OFFSET	 0.000000	 0.000000	 0.544354
				CHANNELS 3 Zrotation Xrotation Yrotation
				JOINT RightToeBase
				{
					OFFSET	 0.000000	 0.000000	 0.207540
					CHANNELS 3 Zrotation Xrotation Yrotation
					End Site
					{
						OFFSET	 0.000000	 0.000000	 0.207540
					}
				}
			}
		}
	}
	JOINT Spine
	{
		OFFSET	 0.000184	-0.007763	 0.117403
		CHANNELS 3 Zrotation Xrotation Yrotation
		JOINT Spine1
		{
			OFFSET	 0.000000	 0.000000	 0.137269
			CHANNELS 3 Zrotation Xrotation Yrotation
			JOINT Spine2
			{
				OFFSET	 0.000000	 0.000000	 0.156879
				CHANNELS 3 Zrotation Xrotation Yrotation
				JOINT LeftShoulder
				{
					OFFSET	 0.080501	-0.002496	 0.160144
					CHANNELS 3 Zrotation Xrotation Yrotation
					JOINT LeftArm
					{
						OFFSET	 0.000000	 0.000000	 0.164363
						CHANNELS 3 Zrotation Xrotation Yrotation
						JOINT LeftForeArm
						{
							OFFSET	 0.000000	 0.000000	 0.364576
							CHANNELS 3 Zrotation Xrotation Yrotation
							JOINT LeftHand
							{
								OFFSET	 0.000000	 0.000000	 0.360812
								CHANNELS 3 Zrotation Xrotation Yrotation
								JOINT LeftHandIndex1
								{
									OFFSET	 0.000000	 0.000000	 0.086006
									CHANNELS 3 Zrotation Xrotation Yrotation
									JOINT LeftHandIndex2
									{
										OFFSET	 0.000000	 0.000000	 0.047237
										CHANNELS 3 Zrotation Xrotation Yrotation
										JOINT LeftHandIndex3
										{
											OFFSET	-0.004284	-0.000551	 0.038165
											CHANNELS 3 Zrotation Xrotation Yrotation
											End Site
											{
												OFFSET	-0.004284	-0.000551	 0.038165
											}
										}
									}
								}
							}
						}
					}
				}
				JOINT Neck
				{
					OFFSET	 0.000000	 0.000000	 0.176489
					CHANNELS 3 Zrotation Xrotation Yrotation
					JOINT Head
					{
						OFFSET	 0.000000	-0.001747	 0.077940
						CHANNELS 3 Zrotation Xrotation Yrotation
						End Site
						{
							OFFSET	 0.000000	-0.001747	 0.077940
						}
					}
				}
				JOINT RightShoulder
				{
					OFFSET	-0.080363	 0.000306	 0.159706
					CHANNELS 3 Zrotation Xrotation Yrotation
					JOINT RightArm
					{
						OFFSET	 0.000000	 0.000000	 0.164196
						CHANNELS 3 Zrotation Xrotation Yrotation
						JOINT RightForeArm
						{
							OFFSET	 0.000000	 0.000000	 0.365611
							CHANNELS 3 Zrotation Xrotation Yrotation
							JOINT RightHand
							{
								OFFSET	 0.000000	 0.000000	 0.360648
								CHANNELS 3 Zrotation Xrotation Yrotation
								JOINT RightHandIndex1
								{
									OFFSET	 0.000000	 0.000000	 0.069977
									CHANNELS 3 Zrotation Xrotation Yrotation
									JOINT RightHandIndex2
									{
										OFFSET	 0.000000	 0.000000	 0.052305
										CHANNELS 3 Zrotation Xrotation Yrotation
										JOINT RightHandIndex3
										{
											OFFSET	 0.009002	-0.000782	 0.042196
											CHANNELS 3 Zrotation Xrotation Yrotation
											End Site
											{
												OFFSET	 0.009002	-0.000782	 0.042196
											}
										}
									}
								}
							}
						}
					}
				}
			}
		}
	}
}
MOTION
Frames:    8
Frame Time: 0.03333334
-0.441278	-0.033223	 1.273279	-179.743400	-1.667270	 0.574411	 7.221399	 0.176351	 177.053400	-1.069284	-10.783870	-0.305196	-21.650010	 70.015150	 7.663317	-2.385833	 28.452760	 0.000004	 14.425550	-0.886145	 179.111800	-1.353253	-13.051340	-0.649967	 28.501330	 70.403640	-10.633680	 2.384659	 28.388700	-0.000001	 2.494032	 6.826382	-3.375225	 1.818867	-2.992266	 10.124730	-3.738175	 4.937057	-9.841274	-91.776240	 78.527420	-180.000000	-11.916720	-6.000188	 3.456647	 2.539164	-3.549366	-38.043790	-2.287707	-24.958310	-3.273513	-4.130319	 21.525730	 0.991547	-5.167930	 0.731704	 3.519349	-1.378229	 35.397820	-2.634230	-1.423266	-1.477414	 0.702469	-13.503900	-18.414570	-7.596053	 89.782120	 78.203890	 180.000000	 19.671870	-12.589710	 3.504684	-13.773380	-4.282145	 28.854600	 19.778960	 33.954800	 32.002010	 5.716227	 19.173190	-3.685159	 5.027444	 0.246877	-9.377972	-2.350882	 35.473990	 5.254307
-0.441403	-0.033248	 1.273183	-179.706000	-2.212548	 0.657005	 10.835340	 0.496730	 176.528400	-2.685416	-10.848190	-0.611713	-17.071380	 70.176410	 4.419821	-2.385833	 28.452760	 0.000004	 14.869800	-0.244845	 178.854700	-0.364497	-12.840450	-0.419539	 24.793100	 70.204830	-7.665367	 2.384659	 28.388700	-0.000001	 2.589356	 7.424728	-3.636748	 1.906016	-2.243970	 10.120030	-4.209094	 3.672512	-9.659295	-91.776180	 78.527380	-180.000000	-15.349410	-4.878791	 3.487251	 2.032448	-3.264184	-39.041490	-1.789217	-26.074710	-2.877192	-4.130319	 21.525730	 0.991547	-5.167930	 0.731704	 3.519349	-1.378229	 35.397820	-2.634230	-1.734524	-0.984864	 0.888427	-13.972650	-20.408550	-9.129771	 89.782160	 78.203830	 179.999900	 24.272480	-10.876830	 3.646266	-14.284090	-4.850050	 30.320380	 21.309840	 40.262990	 38.632430	 5.716227	 19.173190	-3.685159	 5.027444	 0.246877	-9.377972	-2.350882	 35.473990	 5.254307
-0.441736	-0.033395	 1.272797	-179.547200	-3.744197	 0.985162	 20.498930	 0.491266	 174.724300	-7.116159	-12.363910	-1.653383	-2.881480	 71.124960	-6.357686	-2.385833	 28.452760	 0.000004	 15.795970	 1.103373	 178.107700	 2.232380	-13.118500	 0.161086	 12.661820	 69.780270	 2.831626	 2.384659	 28.388700	-0.000001	 2.790395	 9.130914	-4.366836	 2.111945	-0.200292	 9.852993	-5.568417	 0.184896	-9.123322	-91.776250	 78.527360	-179.999900	-31.117750	 0.916176	 5.141927	 0.558608	-2.544194	-45.015230	-0.795868	-28.183880	-2.021432	-4.130319	 21.525730	 0.991547	-5.167930	 0.731704	 3.519349	-1.378229	 35.397820	-2.634230	-2.647442	 0.436763	 1.514262	-15.739210	-25.962490	-13.893940	 89.782040	 78.203830	-180.000000	 42.391590	-3.542620	 1.788447	-15.140770	-7.229578	 38.241540	 32.207270	 58.413060	 44.571000	 5.716227	 19.173190	-3.685159	 5.027444	 0.246877	-9.377972	-2.350882	 35.473990	 5.254307
-0.441942	-0.033649	 1.272195	-179.366500	-4.147225	 1.314518	 22.962340	-0.776276	 173.956600	-8.425305	-15.143100	-2.365710	-1.372730	 72.307390	-6.743743	-2.385833	 28.452760	 0.000004	 15.341760	 0.791603	 177.943000	 2.932458	-14.549920	 0.354243	 9.464082	 69.975170	 5.605587	 2.384659	 28.388700	-0.000001	 2.540067	 9.678627	-4.534405	 2.080822	 0.201473	 9.104053	-5.977722	-0.685108	-8.632739	-91.776170	 78.527360	 180.000000	-35.853630	 4.418635	 8.844356	-0.295032	-2.315845	-53.952000	-1.446909	-27.442380	-2.390051	-4.130319	 21.525730	 0.991547	-5.167930	 0.731704	 3.519349	-1.378229	 35.397820	-2.634230	-2.946694	 0.898207	 1.871220	-16.522040	-27.461630	-15.642100	 89.782000	 78.203850	-179.999900	 47.758100	-0.416213	-2.875687	-13.767020	-9.048774	 49.360070	 42.742180	 60.924690	 37.002700	 5.716227	 19.173190	-3.685159	 5.027444	 0.246877	-9.377972	-2.350882	 35.473990	 5.254307
-0.442201	-0.034051	 1.271252	-179.170900	-4.483072	 1.550586	 24.549220	-2.252087	 173.381900	-9.516705	-18.533390	-3.233424	-0.645119	 74.001980	-6.631639	-2.385833	 28.452760	 0.000004	 14.840990	-0.042996	 178.051600	 3.500746	-17.037120	 0.579785	 7.634258	 70.834050	 7.058727	 2.384659	 28.388700	-0.000001	 2.070494	 10.178420	-4.595253	 1.941079	 0.521829	 8.403417	-6.272745	-1.350545	-8.200600	-91.776140	 78.527420	 180.000000	-39.459100	 9.194690	 13.470800	-1.035883	-2.049531	-65.309720	-2.201581	-26.943270	-2.688960	-4.130319	 21.525730	 0.991547	-5.167930	 0.731704	 3.519349	-1.378229	 35.397820	-2.634230	-3.176192	 1.242027	 2.177217	-17.156600	-28.540330	-17.097420	 89.782100	 78.203900	-180.000000	 51.429260	 3.321191	-8.730771	-11.403000	-10.702210	 63.404240	 54.995780	 58.744350	 25.609160	 5.716227	 19.173190	-3.685159	 5.027444	 0.246877	-9.377972	-2.350882	 35.473990	 5.254307
-0.442531	-0.034653	 1.269842	-178.932000	-4.545079	 1.470230	 23.509390	-3.727209	 173.545200	-9.648045	-22.511870	-3.944609	-3.706693	 76.507170	-3.582713	-2.385833	 28.452760	 0.000004	 14.228710	-1.620556	 178.783100	 3.594081	-20.753240	 0.734269	 10.331900	 72.799190	 4.071151	 2.384659	 28.388700	-0.000001	 1.144995	 10.423780	-4.366195	 1.584970	 0.455204	 8.072677	-6.195481	-1.214201	-8.027507	-91.776180	 78.527360	-180.000000	-36.959200	 14.513060	 16.961680	-1.530045	-2.126547	-78.211030	-2.495084	-27.279580	-2.890319	-4.130319	 21.525730	 0.991547	-5.167930	 0.731704	 3.519349	-1.378229	 35.397820	-2.634230	-3.151781	 1.184157	 2.289522	-17.087270	-28.245660	-17.352950	 89.782160	 78.203900	 179.999900	 48.951900	 6.657141	-14.249760	-8.060054	-11.273320	 80.093510	 59.449800	 47.911960	 15.500140	 5.716227	 19.173190	-3.685159	 5.027444	 0.246877	-9.377972	-2.350882	 35.473990	 5.254307
-0.443004	-0.035512	 1.267824	-178.662400	-4.646611	 1.363476	 22.463890	-5.369186	 173.726000	-9.960387	-27.203960	-4.853317	-8.749745	 79.425710	 1.501791	-2.385833	 28.452760	 0.000004	 13.650770	-3.397876	 179.797300	 3.737861	-25.061360	 0.938732	 14.662760	 74.955650	-0.673630	 2.384659	 28.388700	-0.000001	-0.035736	 10.759640	-4.062561	 1.090087	 0.486938	 7.608883	-6.148837	-1.191676	-7.791427	-91.776140	 78.527420	 180.000000	-32.812870	 23.714780	 17.321310	-1.985319	-2.010079	-90.492970	-2.930616	-27.607230	-3.148074	-4.130319	 21.525730	 0.991547	-5.167930	 0.731704	 3.519349	-1.378229	 35.397820	-2.634230	-3.123022	 1.085390	 2.331792	-17.008510	-27.938860	-17.474340	 89.782220	 78.203920	 179.999900	 45.032520	 13.571560	-18.162680	-4.578720	-10.649260	 98.307010	 58.513510	 33.604520	 6.803555	 5.716227	 19.173190	-3.685159	 5.027444	 0.246877	-9.377972	-2.350882	 35.473990	 5.254307
-0.443678	-0.036571	 1.265334	-178.311100	-4.834408	 1.190961	 21.654460	-6.861949	 173.919800	-10.633310	-31.956250	-5.979821	-16.460760	 82.214240	 9.434776	-2.385833	 28.452760	 0.000004	 13.081070	-5.049297	-178.919600	 4.001400	-29.395360	 1.217221	 20.218420	 76.904610	-6.765225	 2.384659	 28.388700	-0.000001	-1.429141	 11.268430	-3.629704	 0.519032	 0.609937	 6.995267	-6.197976	-1.391730	-7.465800	-91.776180	 78.527400	-180.000000	-24.842550	 36.400960	 10.091320	-2.169253	-1.686192	-97.020000	-3.545614	-27.752880	-3.446666	-4.130319	 21.525730	 0.991547	-5.167930	 0.731704	 3.519349	-1.378229	 35.397820	-2.634230	-3.083272	 0.841358	 2.086685	-16.910710	-27.638230	-17.031240	 89.782040	 78.203900	-180.000000	 37.803170	 25.896120	-16.551900	-2.319487	-8.787583	 113.658200	 50.932430	 17.003250	-1.173026	 5.716227	 19.173190	-3.685159	 5.027444	 0.246877	-9.377972	-2.350882	 35.473990	 5.254307
